<svg width="263" height="56" viewBox="0 0 263 56" fill="none" xmlns="http://www.w3.org/2000/svg">
<path d="M22.8518 4.76328L46.498 0L47.8935 6.93252L24.2473 11.6958L22.8518 4.76328Z" fill="#21B576"/>
<path d="M35.3272 29.9427L33.8466 21.8927L33.5719 20.399H50.5177L49.1222 13.4665H24.6032L26.4202 22.4978C24.8499 22.8503 23.2613 23.3465 21.6794 23.9931C10.4626 28.5772 3.82573 38.976 6.85557 47.2191C9.88547 55.4622 21.4344 58.4282 32.6512 53.8442C34.9344 52.9111 37.028 51.737 38.8888 50.3893L37.3769 41.6694C35.5819 43.5716 33.0926 45.3567 29.9967 46.622C25.6799 48.3862 21.5884 48.5668 18.596 47.7983C15.5859 47.0252 14.302 45.5334 13.8681 44.3529C13.4343 43.1723 13.4295 41.158 15.1592 38.4481C16.8788 35.7538 20.0171 32.9794 24.3338 31.2153C25.5634 30.7128 26.7746 30.3389 27.9474 30.0788L30.2908 41.7119L37.1759 39.994L35.3272 29.9427Z" fill="#21B576"/>
<path d="M56.8206 12.4443H77.6943V19.2481H64.0218V26.2435H76.186V33.0472H64.0218V45.9839H56.8206V12.4443Z" fill="white"/>
<path d="M95.8638 22.4583H102.724V45.9839H95.8638V43.2049C94.696 45.1214 91.8253 46.463 88.8086 46.463C82.5805 46.463 77.6662 41.0009 77.6662 34.1971C77.6662 27.3934 82.5805 21.9791 88.8086 21.9791C91.7766 21.9791 94.696 23.3207 95.8638 25.2373V22.4583ZM90.3169 40.0426C92.7011 40.0426 94.842 38.7968 95.8638 37.1199V31.3702C94.842 29.6453 92.7011 28.3517 90.3169 28.3517C86.9596 28.3517 84.3808 30.8432 84.3808 34.1971C84.3808 37.5511 86.9596 40.0426 90.3169 40.0426Z" fill="white"/>
<path d="M119.451 21.9791C125.485 21.9791 129.183 26.0518 129.183 32.6639V45.9839H122.322V33.8138C122.322 30.5557 120.522 28.6871 117.7 28.6871C115.802 28.6871 113.904 29.7412 112.931 31.3702V45.9839H106.071V22.4583H112.931V25.2373C114.245 23.2249 116.775 21.9791 119.451 21.9791Z" fill="white"/>
<path d="M145.931 21.9791C151.965 21.9791 155.662 26.0518 155.662 32.6639V45.9839H148.802V33.8138C148.802 30.5557 147.002 28.6871 144.179 28.6871C142.282 28.6871 140.384 29.7412 139.411 31.3702V45.9839H132.551V22.4583H139.411V25.2373C140.725 23.2249 143.255 21.9791 145.931 21.9791Z" fill="white"/>
<path d="M170.854 12.4443C180.683 12.4443 188.127 19.5356 188.127 29.0704C188.127 38.7968 180.683 45.9839 170.854 45.9839H159.176V12.4443H170.854ZM171.341 39.1801C176.741 39.1801 180.683 34.8679 180.683 29.0704C180.683 23.3686 176.79 19.2481 171.341 19.2481H166.378V39.1801H171.341Z" fill="white"/>
<path d="M203.292 21.9791C204.508 21.9791 205.481 22.1229 206.016 22.4104V28.735C204.897 28.3996 203.73 28.2079 202.756 28.2079C201.199 28.2079 198.718 29.4537 197.55 31.7535V45.9839H190.69V22.4583H197.55V25.2373C198.718 23.2249 201.297 21.9791 203.292 21.9791Z" fill="white"/>
<path d="M217.674 46.463C210.619 46.463 205.266 41.2404 205.266 34.245C205.266 27.2496 210.619 21.9791 217.674 21.9791C224.68 21.9791 230.081 27.2496 230.081 34.245C230.081 41.2404 224.68 46.463 217.674 46.463ZM217.674 39.9947C220.885 39.9947 223.367 37.5032 223.367 34.245C223.367 30.8911 220.885 28.4475 217.674 28.4475C214.414 28.4475 211.981 30.8911 211.981 34.245C211.981 37.5032 214.414 39.9947 217.674 39.9947Z" fill="white"/>
<path d="M246.399 21.9791C252.627 21.9791 257.493 27.3934 257.493 34.1971C257.493 41.0009 252.627 46.463 246.399 46.463C243.382 46.463 240.511 45.1214 239.344 43.2049V53.7459H232.483V22.4583H239.344V25.2373C240.511 23.3207 243.382 21.9791 246.399 21.9791ZM244.89 40.0426C248.199 40.0426 250.778 37.5511 250.778 34.1971C250.778 30.8911 248.199 28.3517 244.89 28.3517C242.506 28.3517 240.365 29.6453 239.344 31.3223V37.0719C240.365 38.7968 242.458 40.0426 244.89 40.0426Z" fill="white"/>
</svg>
