<svg width="16" height="16" viewBox="0 0 16 16" fill="none" xmlns="http://www.w3.org/2000/svg">
<g clip-path="url(#clip0_9874_6217)">
<path d="M8 16C12.4183 16 16 12.4183 16 8C16 3.58172 12.4183 0 8 0C3.58172 0 0 3.58172 0 8C0 12.4183 3.58172 16 8 16Z" fill="#FFD15C"/>
<path d="M8.00001 14.0669C11.3505 14.0669 14.0667 11.3508 14.0667 8.00025C14.0667 4.64973 11.3505 1.93359 8.00001 1.93359C4.64948 1.93359 1.93335 4.64973 1.93335 8.00025C1.93335 11.3508 4.64948 14.0669 8.00001 14.0669Z" fill="#F8A13A"/>
<path d="M8.16669 0.400391H7.83334V1.53373H8.16669V0.400391Z" fill="#F8A13A"/>
<path d="M8.16669 14.4668H7.83334V15.6001H8.16669V14.4668Z" fill="#F8A13A"/>
<path d="M5.94815 1.87067L5.56055 0.805664L5.2473 0.919668L5.63491 1.98467L5.94815 1.87067Z" fill="#F8A13A"/>
<path d="M10.7529 15.0797L10.3653 14.0146L10.0521 14.1287L10.4397 15.1937L10.7529 15.0797Z" fill="#F8A13A"/>
<path d="M3.97723 2.92378L3.24873 2.05566L2.99342 2.26992L3.72191 3.13803L3.97723 2.92378Z" fill="#F8A13A"/>
<path d="M12.9844 13.7041L12.2559 12.8359L12.0006 13.0502L12.7291 13.9183L12.9844 13.7041Z" fill="#F8A13A"/>
<path d="M2.48148 4.60767L1.50003 4.04102L1.33337 4.32966L2.31482 4.89632L2.48148 4.60767Z" fill="#F8A13A"/>
<path d="M14.64 11.6536L13.6585 11.0869L13.4919 11.3756L14.4733 11.9422L14.64 11.6536Z" fill="#F8A13A"/>
<path d="M1.64811 6.72518L0.531998 6.52832L0.474096 6.8566L1.59021 7.05346L1.64811 6.72518Z" fill="#F8A13A"/>
<path d="M15.4945 9.13827L14.3784 8.94141L14.3205 9.26968L15.4366 9.46655L15.4945 9.13827Z" fill="#F8A13A"/>
<path d="M1.58966 8.94962L0.473541 9.14648L0.531443 9.47476L1.64756 9.2779L1.58966 8.94962Z" fill="#F8A13A"/>
<path d="M15.4341 6.53458L14.318 6.73145L14.3759 7.05972L15.492 6.86286L15.4341 6.53458Z" fill="#F8A13A"/>
<path d="M2.3143 11.1033L1.33286 11.6699L1.49951 11.9586L2.48096 11.3919L2.3143 11.1033Z" fill="#F8A13A"/>
<path d="M14.4698 4.05737L13.4884 4.62402L13.655 4.91267L14.6365 4.34602L14.4698 4.05737Z" fill="#F8A13A"/>
<path d="M3.72227 12.8624L2.99377 13.7305L3.24909 13.9447L3.97758 13.0766L3.72227 12.8624Z" fill="#F8A13A"/>
<path d="M12.7295 2.0811L12.001 2.94922L12.2563 3.16347L12.9848 2.29535L12.7295 2.0811Z" fill="#F8A13A"/>
<path d="M5.63504 14.017L5.24744 15.082L5.56068 15.196L5.94828 14.131L5.63504 14.017Z" fill="#F8A13A"/>
<path d="M10.4398 0.806091L10.0522 1.87109L10.3655 1.9851L10.7531 0.920094L10.4398 0.806091Z" fill="#F8A13A"/>
<g opacity="0.1" style="mix-blend-mode:hard-light">
<path d="M2.60001 8.66691C2.60001 5.33359 5.33335 2.60025 8.66666 2.60025C10.1667 2.60025 11.5333 3.13359 12.6 4.06691C11.5 2.76691 9.83335 1.93359 8.00001 1.93359C4.66666 1.93359 1.93335 4.66691 1.93335 8.00025C1.93335 9.83359 2.76669 11.5002 4.06669 12.6003C3.16666 11.5336 2.60001 10.1669 2.60001 8.66691Z" fill="#150D00"/>
</g>
<g filter="url(#filter0_d_9874_6217)">
<path d="M6.25607 4.4978L9.84357 3.77441L10.0553 4.82724L6.46779 5.55064L6.25607 4.4978Z" fill="#FFD15C"/>
<path d="M8.14879 8.32176L7.92416 7.09922L7.88248 6.87238H10.4534L10.2417 5.81955H6.52179L6.79746 7.19111C6.55921 7.24464 6.3182 7.32002 6.07819 7.4182C4.37642 8.11438 3.36951 9.69363 3.82919 10.9455C4.28887 12.1974 6.04103 12.6478 7.74279 11.9516C8.08919 11.8099 8.40681 11.6316 8.68913 11.4269L8.45975 10.1027C8.18742 10.3916 7.80976 10.6627 7.34006 10.8548C6.68514 11.1227 6.06439 11.1502 5.61039 11.0335C5.15372 10.9161 4.95893 10.6895 4.8931 10.5102C4.82728 10.3309 4.82656 10.025 5.08897 9.61346C5.34987 9.20428 5.826 8.78295 6.48092 8.51502C6.66745 8.43871 6.85122 8.38193 7.02915 8.34243L7.38468 10.1091L8.42926 9.84824L8.14879 8.32176Z" fill="#FFD15C"/>
</g>
</g>
<defs>
<filter id="filter0_d_9874_6217" x="2.62393" y="3.55566" width="9.31214" height="9.95195" filterUnits="userSpaceOnUse" color-interpolation-filters="sRGB">
<feFlood flood-opacity="0" result="BackgroundImageFix"/>
<feColorMatrix in="SourceAlpha" type="matrix" values="0 0 0 0 0 0 0 0 0 0 0 0 0 0 0 0 0 0 127 0" result="hardAlpha"/>
<feOffset dx="0.56" dy="1.2"/>
<feComposite in2="hardAlpha" operator="out"/>
<feColorMatrix type="matrix" values="0 0 0 0 0.964706 0 0 0 0 0.537255 0 0 0 0 0.0352941 0 0 0 1 0"/>
<feBlend mode="normal" in2="BackgroundImageFix" result="effect1_dropShadow_9874_6217"/>
<feBlend mode="normal" in="SourceGraphic" in2="effect1_dropShadow_9874_6217" result="shape"/>
</filter>
<clipPath id="clip0_9874_6217">
<rect width="16" height="16" fill="white"/>
</clipPath>
</defs>
</svg>
